<?xml version="1.0" standalone="no"?><!DOCTYPE svg PUBLIC "-//W3C//DTD SVG 1.1//EN" "http://www.w3.org/Graphics/SVG/1.1/DTD/svg11.dtd"><svg t="1740551542850" class="icon" viewBox="0 0 1024 1024" version="1.1" xmlns="http://www.w3.org/2000/svg" p-id="2632" xmlns:xlink="http://www.w3.org/1999/xlink" width="200" height="200"><path d="M417.233455 337.128727a34.909091 34.909091 0 0 1 34.90909-34.909091h275.316364a34.909091 34.909091 0 0 1 0 69.818182H452.142545a34.909091 34.909091 0 0 1-34.90909-34.909091z m34.90909 147.549091h275.316364a34.909091 34.909091 0 0 0 0-69.818182H452.142545a34.909091 34.909091 0 0 0 0 69.818182z m526.75491 225.466182v200.238545c0 41.332364-33.652364 74.938182-74.938182 74.938182H122.973091c-41.332364 0-74.938182-33.652364-74.938182-74.938182v-200.238545c0-25.6 12.939636-48.221091 32.535273-61.719273V249.483636a115.153455 115.153455 0 0 1 115.013818-115.013818h44.497455a114.781091 114.781091 0 0 1 108.264727-77.591273h483.095273a115.2 115.2 0 0 1 115.013818 115.060364V648.378182c19.549091 13.591273 32.442182 36.165818 32.442182 61.765818zM303.057455 171.938909v463.173818h81.035636a34.909091 34.909091 0 0 1 34.722909 31.371637c1.861818 18.292364 38.772364 43.706182 94.626909 43.706181s92.765091-25.460364 94.626909-43.706181a34.909091 34.909091 0 0 1 34.722909-31.371637h233.704728V171.938909a45.288727 45.288727 0 0 0-45.195637-45.242182H348.253091a45.335273 45.335273 0 0 0-45.195636 45.242182zM150.341818 249.483636v385.629091h82.850909V204.334545H195.490909a45.242182 45.242182 0 0 0-45.149091 45.149091z m758.737455 460.660364a5.12 5.12 0 0 0-5.12-5.166545h-235.845818c-22.853818 44.404364-83.130182 75.077818-154.624 75.077818s-131.770182-30.673455-154.717091-75.077818H122.973091a5.12 5.12 0 0 0-5.12 5.166545v200.238545c0 2.885818 2.234182 5.12 5.12 5.12h780.986182a5.12 5.12 0 0 0 5.12-5.12v-200.238545z" p-id="2633"></path></svg>
