<?xml version="1.0" standalone="no"?><!DOCTYPE svg PUBLIC "-//W3C//DTD SVG 1.1//EN" "http://www.w3.org/Graphics/SVG/1.1/DTD/svg11.dtd"><svg t="1705651178759" class="icon" viewBox="0 0 1024 1024" version="1.1" xmlns="http://www.w3.org/2000/svg" p-id="7153" xmlns:xlink="http://www.w3.org/1999/xlink" width="200" height="200"><path d="M866.37226667 890.85269333c-23.22432 0-37.08245333-13.14816-37.08245334-35.18464v-131.26314666c0-36.00384-23.66122667-36.00384-32.57685333-36.00384-41.53344 0-42.01130667 41.27402667-42.01130667 41.71093333v125.55605333c0 21.36746667-14.10389333 35.18464-35.96288 35.18464-22.88298667 0-37.09610667-13.47584-37.09610666-35.18464V657.03936c0-21.96821333 13.9264-35.59424 36.33152-35.59424 16.19285333 0 28.00298667 6.9632 33.42336 18.96448 13.38026667-9.99424 32.38570667-18.96448 58.66837333-18.96448 57.7536 0 92.25557333 35.92192 92.25557333 96.07850667v138.14442666c0.01365333 13.06624-5.14730667 20.99882667-9.47541333 25.31328-6.43072 6.45802667-15.59210667 9.87136-26.47381333 9.87136z m-248.76373334-7.97354666H473.78432c-45.64309333 0-66.01386667-20.23424-66.01386667-65.65888V614.76864c0-45.38368 20.37077333-65.63157333 66.01386667-65.63157333h137.37984c21.14901333 0 34.816 13.5168 34.816 34.42005333 0 21.14901333-13.66698667 34.82965333-34.816 34.82965333h-124.05418667c-2.40298667 0-3.57717333 0.38229333-3.83658666 0.53248 0.13653333-0.04096-0.15018667 0.86016-0.15018667 3.08565334v56.1152h113.19978667c32.30378667 0.08192 34.816 25.79114667 34.816 33.68277333 0 20.69845333-13.66698667 34.03776-34.816 34.03776h-113.19978667v64.14336c0 1.97973333 0.25941333 2.99008 0.38229333 3.35872 0.12288-0.04096 1.28341333 0.25941333 3.60448 0.25941333h130.51221334c24.08448 0 34.85696 17.29877333 34.85696 34.43370667-0.01365333 21.49034667-13.35296 34.84330667-34.87061334 34.84330667zM313.07093333 481.14346667c-24.31658667 0-38.25664-13.14816-38.25664-36.08576V361.2672h-91.05408c-48.93354667 0-70.76522667-21.83168-70.76522666-70.76522667V190.32746667c0-48.64682667 21.83168-70.32832 70.76522666-70.32832h91.05408V86.34368c0-22.33685333 13.66698667-35.66250667 36.53632-35.66250667 32.29013333 0 39.07584 19.38773333 39.07584 35.66250667v33.68277333h91.87328c48.9472 0 70.77888 21.69514667 70.77888 70.31466667v100.18816c0 48.93354667-21.83168 70.75157333-70.77888 70.75157333h-91.87328v83.79050667c0 22.58261333-13.96736 36.07210667-37.35552 36.07210667z m-117.74634666-289.792c-6.90858667 0-7.55029333 0.64170667-7.55029334 7.55029333v83.44917333c0 6.97685333 0.64170667 7.61856 7.55029334 7.61856h79.48970666v-98.61802666h-79.48970666z m155.10186666 98.57706666h80.33621334c6.71744 0 7.56394667-0.86016 7.56394666-7.55029333v-83.50378667c0-6.70378667-0.84650667-7.56394667-7.56394666-7.56394666h-80.33621334v98.61802666z" p-id="7154"></path><path d="M512 989.86666667C249.06410667 989.86666667 35.14368 775.49568 35.14368 512c0-38.05184 4.49194667-75.96714667 13.36661333-112.72192 4.86058667-20.11136 25.81845333-32.93184 45.91616-28.0576a37.77877333 37.77877333 0 0 1 23.52469334 17.10762667c5.3248 8.68352 6.92224 18.89621333 4.53290666 28.78122666a404.41173333 404.41173333 0 0 0-11.23669333 94.84970667c0 221.57994667 179.78709333 401.80394667 400.76629333 401.80394667a38.0928 38.0928 0 0 1 38.02453334 38.03818666A38.10645333 38.10645333 0 0 1 512 989.86666667z m425.27402667-330.87488a38.2976 38.2976 0 0 1-30.05098667-14.69098667 38.33856 38.33856 0 0 1-6.85397333-32.69973333c8.23296-32.34474667 12.38357333-65.83637333 12.38357333-99.60106667 0-221.55264-179.78709333-401.80394667-400.76629333-401.80394667a38.0928 38.0928 0 0 1-38.02453334-38.03818666A38.0928 38.0928 0 0 1 512 34.13333333c262.93589333 0 476.85632 214.37098667 476.85632 477.86666667 0 40.00426667-4.95616 79.81738667-14.73194667 118.30613333a37.99722667 37.99722667 0 0 1-36.85034666 28.68565334z" p-id="7155"></path></svg>
